<?xml version="1.0" encoding="UTF-8" standalone="no"?>
<svg
   xmlns:dc="http://purl.org/dc/elements/1.1/"
   xmlns:cc="http://creativecommons.org/ns#"
   xmlns:rdf="http://www.w3.org/1999/02/22-rdf-syntax-ns#"
   xmlns:svg="http://www.w3.org/2000/svg"
   xmlns="http://www.w3.org/2000/svg"
   viewBox="0 0 648.38666 228.18668"
   height="228.18668"
   width="648.38666"
   xml:space="preserve"
   id="svg2"
   version="1.1"><metadata
     id="metadata8"><rdf:RDF><cc:Work
         rdf:about=""><dc:format>image/svg+xml</dc:format><dc:type
           rdf:resource="http://purl.org/dc/dcmitype/StillImage" /></cc:Work></rdf:RDF></metadata><defs
     id="defs6" /><g
     transform="matrix(1.3333333,0,0,-1.3333333,0,228.18667)"
     id="g10"><g
       transform="scale(0.1)"
       id="g12"><path
         id="path14"
         style="fill:#485fb1;fill-opacity:1;fill-rule:nonzero;stroke:none"
         d="m 789.477,1109.34 c -45.84,0 -59.082,-20.37 -59.082,-65.2 V 969.781 H 852.633 L 840.406,849.578 H 730.395 V 484.891 H 583.703 v 364.687 h -98.812 v 120.203 h 98.812 v 72.329 c 0,121.22 48.899,185.4 185.395,185.4 29.547,0 64.179,-2.05 85.574,-5.1 v -113.07 h -65.195" /><path
         id="path16"
         style="fill:#485fb1;fill-opacity:1;fill-rule:nonzero;stroke:none"
         d="m 1009.48,710.02 c 0,-72.329 26.49,-120.211 94.74,-120.211 60.1,0 90.66,43.812 90.66,113.082 v 48.894 c 0,69.266 -30.56,113.07 -90.66,113.07 -68.25,0 -94.74,-47.875 -94.74,-120.203 z m -146.683,32.593 c 0,135.485 64.172,237.356 198.643,237.356 73.34,0 118.16,-37.692 139.55,-84.551 v 74.363 h 140.58 v -484.89 h -140.58 v 73.339 c -20.37,-46.859 -66.21,-83.531 -139.55,-83.531 -134.471,0 -198.643,101.871 -198.643,237.356 v 30.558" /><path
         id="path18"
         style="fill:#485fb1;fill-opacity:1;fill-rule:nonzero;stroke:none"
         d="m 1647.13,979.969 c 57.05,0 111.04,-12.227 140.58,-32.598 l -32.6,-103.906 c -22.41,11.207 -59.08,22.41 -97.79,22.41 -79.46,0 -114.1,-45.84 -114.1,-124.277 v -28.524 c 0,-78.433 34.64,-124.273 114.1,-124.273 38.71,0 75.38,11.199 97.79,22.41 l 32.6,-103.91 c -29.54,-20.371 -83.53,-32.602 -140.58,-32.602 -172.16,0 -250.59,92.699 -250.59,241.43 v 22.414 c 0,148.727 78.43,241.426 250.59,241.426" /><path
         id="path20"
         style="fill:#485fb1;fill-opacity:1;fill-rule:nonzero;stroke:none"
         d="m 1953.73,772.156 h 177.25 v 12.227 c 0,52.969 -21.39,94.734 -85.57,94.734 -66.21,0 -91.68,-41.765 -91.68,-106.961 z M 1807.04,709 v 42.785 c 0,137.52 78.44,228.184 238.37,228.184 150.76,0 216.97,-91.68 216.97,-226.149 v -77.422 h -308.65 c 3.05,-66.218 32.59,-95.757 114.09,-95.757 55.01,0 113.07,11.211 155.86,29.539 l 26.48,-100.84 c -38.71,-20.379 -118.17,-35.649 -188.45,-35.649 -185.4,0 -254.67,92.688 -254.67,235.309" /><path
         id="path22"
         style="fill:#485fb1;fill-opacity:1;fill-rule:nonzero;stroke:none"
         d="m 2659.64,745.672 c 0,68.25 -26.49,119.183 -96.78,119.183 -60.1,0 -92.7,-42.781 -92.7,-112.054 v -50.93 c 0,-69.269 32.6,-112.062 92.7,-112.062 70.29,0 96.78,50.941 96.78,119.191 z m 146.69,-33.617 c 0,-135.485 -65.2,-237.356 -199.66,-237.356 -73.35,0 -124.28,36.672 -144.65,83.531 v -73.339 h -138.55 v 728.359 l 146.69,13.24 V 902.547 c 21.39,42.781 68.25,77.422 136.51,77.422 134.46,0 199.66,-101.871 199.66,-237.356 v -30.558" /><path
         id="path24"
         style="fill:#485fb1;fill-opacity:1;fill-rule:nonzero;stroke:none"
         d="m 3191.35,749.742 c 0,64.18 -26.49,115.113 -94.73,115.113 -68.25,0 -94.75,-50.933 -94.75,-115.113 v -44.82 c 0,-64.172 26.5,-115.113 94.75,-115.113 68.24,0 94.73,50.941 94.73,115.113 z m -336.16,-34.633 v 24.45 c 0,139.558 79.46,240.41 241.43,240.41 161.96,0 241.42,-100.852 241.42,-240.41 v -24.45 c 0,-139.558 -79.46,-240.41 -241.42,-240.41 -161.97,0 -241.43,100.852 -241.43,240.41" /><path
         id="path26"
         style="fill:#485fb1;fill-opacity:1;fill-rule:nonzero;stroke:none"
         d="m 3723.06,749.742 c 0,64.18 -26.48,115.113 -94.73,115.113 -68.26,0 -94.74,-50.933 -94.74,-115.113 v -44.82 c 0,-64.172 26.48,-115.113 94.74,-115.113 68.25,0 94.73,50.941 94.73,115.113 z m -336.17,-34.633 v 24.45 c 0,139.558 79.46,240.41 241.44,240.41 161.96,0 241.42,-100.852 241.42,-240.41 v -24.45 c 0,-139.558 -79.46,-240.41 -241.42,-240.41 -161.98,0 -241.44,100.852 -241.44,240.41" /><path
         id="path28"
         style="fill:#485fb1;fill-opacity:1;fill-rule:nonzero;stroke:none"
         d="m 4071.4,738.543 144.66,231.238 h 155.86 L 4220.13,730.395 4378.02,484.891 H 4222.17 L 4071.4,722.242 V 484.891 h -146.69 v 728.359 l 146.69,13.24 V 738.543" /></g></g></svg>