<svg id="Layer_1" data-name="Layer 1" xmlns="http://www.w3.org/2000/svg" viewBox="0 0 314.09 427.98"><defs><style>.cls-1,.cls-2{fill:#3b73b9;}.cls-2{stroke:#3b73b9;stroke-miterlimit:10;}</style></defs><title>gedigital</title><g id="Layer_2" data-name="Layer 2"><path class="cls-1" d="M250,348.64c-86.34,0-157-70-157-157,0-86.34,70.71-157,157-157s157,70.71,157,157A156.68,156.68,0,0,1,250,348.64ZM250,42c-82.94,0-149.57,67.31-149.57,149.57,0,82.94,67.31,149.57,149.57,149.57,82.94,0,149.57-67.31,149.57-149.57S332.94,42,250,42ZM383.25,236.46h-.68l-.68-.68a114,114,0,0,0,5.44-33.31c0-19-8.16-30.59-17.68-30.59-6.12,0-10.2,4.08-10.2,10.88,0,11.56,14.28,12.92,14.28,38.07,0,10.2-2,20.4-5.44,31.27C352,306.49,301,331.64,250.68,331.64c-23.12,0-39.43-4.76-44.19-6.8,0,0-.68-.68,0-.68l.68-.68a110.91,110.91,0,0,0,33.31,5.44c19,0,30.59-8.16,30.59-17.68a10.74,10.74,0,0,0-10.88-10.88c-11.56,0-12.92,15-38.07,15-10.88,0-20.4-2-32-5.44-54.39-17-80.22-68-80.22-118.3a150.54,150.54,0,0,1,6.8-44.19h.68l.68.68a110.91,110.91,0,0,0-5.44,33.31c0,19,8.16,30.59,17.68,30.59a10,10,0,0,0,10.2-10.2c0-11.56-14.28-12.92-14.28-38.07,0-10.88,2-20.4,5.44-32C149.38,77.37,200.37,51.54,250,51.54c23.12,0,43.51,6.8,44.19,7.48v.68l-.68.68s-13.6-5.44-33.31-5.44c-19,0-30.59,8.16-30.59,17.68,0,5.44,4.08,10.2,10.88,10.2,11.56,0,12.92-14.28,38.07-14.28,10.88,0,20.4,2,32,5.44,54.39,16.32,79.54,68,79.54,117.62A129.87,129.87,0,0,1,383.25,236.46Zm-74.78-37.39c-15,0-25.83,10.88-25.83,23.8,0,10.88,6.8,19.72,15,19.72,2.72,0,6.12-2,6.12-5.44,0-5.44-7.48-6.8-6.8-15.64A11,11,0,0,1,307.79,212c10.2,0,15.64,10.2,15.64,20.4-.68,16.32-12.24,27.19-26.51,27.19-18.36,0-29.91-17.68-29.91-36,0-27.87,18.36-38.75,27.87-41.47,0,0,25.15,4.76,24.47-6.8,0-4.76-7.48-6.8-12.92-6.8a37,37,0,0,0-11.56,2,12.67,12.67,0,0,1-6.12-8.16c17.68-13.6,30.59-26.51,30.59-41.47,0-8.16-5.44-15-15-15-17.68,0-31.27,22.44-31.27,42.83a51.46,51.46,0,0,0,.68,10.2c-11.56,8.16-19.72,13.6-34.67,22.44,0-2,.68-6.8,1.36-12.92,5.44-5.44,12.24-14.28,12.24-20.4a5.36,5.36,0,0,0-5.44-5.44c-8.84,0-15,12.92-17,22.44C226.2,169.84,218.73,176,211.93,176c-5.44,0-6.8-4.76-7.48-6.8,16.32-5.44,36.71-28.55,36.71-48.95,0-4.08-2-14.28-15-14.28-19.72,0-36,29.23-36,51.67-6.8,0-9.52-7.48-9.52-12.92s2-11.56,2-12.92c0-2-.68-4.08-3.4-4.08-6.8,0-10.2,8.84-10.2,19,.68,13.6,9.52,22.44,21.76,23.8,2,8.16,8.84,16.32,18.36,16.32,5.44,0,12.92-2,17.68-6.12-.68,2.72-.68,5.44-1.36,8.16-19,10.2-33.31,17-45.55,28.55-10.2,8.84-15.64,21.08-15.64,30.59,0,12.92,8.16,25.15,25.15,25.15,19.72,0,35.35-16.32,42.83-38.07,3.4-10.2,4.76-25.83,5.44-39.43C257.48,184.11,267,178,277.87,170.52A37.71,37.71,0,0,0,282,176c-8.84,4.76-30.59,18.36-30.59,50.31,0,22.44,15,47.59,45.55,47.59,24.47,0,41.47-20.4,41.47-40.11C337.7,215.39,327.5,199.07,308.47,199.07ZM188.81,260.26c-6.8,0-10.88-4.08-10.88-10.88,0-19,25.83-36.71,45.55-46.23C220.09,229,211.25,258.9,188.81,260.26Zm14.28-103.34c0-14.28,14.28-41.47,23.12-38.75C236.4,121.57,217.37,149.44,203.09,156.92Zm82.26-6.12c0-17.68,12.24-35.35,18.36-32C311.87,122.25,298.27,139.24,285.35,150.8Z" transform="translate(-92.95 -34.54)"/></g><path class="cls-2" d="M139.81,438.1a5.83,5.83,0,0,1-1.46,4.28q-1.46,1.48-5.7,3a28.75,28.75,0,0,1-9.59,1.49q-10.54,0-16.68-7.1t-6.14-19a31.21,31.21,0,0,1,3-14.19,21.82,21.82,0,0,1,8.61-9.29A23.14,23.14,0,0,1,123.73,394a25.1,25.1,0,0,1,6.53.81,21.18,21.18,0,0,1,5.4,2.23,11.21,11.21,0,0,1,2.78,2,2.23,2.23,0,0,1,.41,1.29,2.47,2.47,0,0,1-.72,1.68,2.17,2.17,0,0,1-1.64.79,1.87,1.87,0,0,1-1-.29l-1-.66a18.92,18.92,0,0,0-10.88-3.39,17,17,0,0,0-13.31,6q-5.27,6-5.27,16.28,0,9.84,4.9,15.76t13.38,5.92a22.85,22.85,0,0,0,7.26-1.11,14,14,0,0,0,3.91-1.68,3.13,3.13,0,0,0,.59-2.23V423.91H123.66a2.34,2.34,0,0,1,0-4.68h13.9a2,2,0,0,1,2.25,2.32Z" transform="translate(-92.95 -34.54)"/><path class="cls-2" d="M157,417h18.65a2.1,2.1,0,0,1,2.36,2.4q0,2.25-2.36,2.25H157v18.58q0,1.14,1,1.14h20.09q2.4,0,2.4,2.25a2.13,2.13,0,0,1-2.4,2.43H157.35a5.18,5.18,0,0,1-3.74-1.29,4.87,4.87,0,0,1-1.35-3.69V400.5a6.35,6.35,0,0,1,1.31-4.15,5.14,5.14,0,0,1,4.22-1.6h20.31a2.34,2.34,0,1,1,0,4.68h-19.8a1.19,1.19,0,0,0-.92.41,1.47,1.47,0,0,0-.37,1Z" transform="translate(-92.95 -34.54)"/><path class="cls-2" d="M222.42,446.1h-9.51a5.18,5.18,0,0,1-3.74-1.29,4.87,4.87,0,0,1-1.35-3.69V399.76a4.93,4.93,0,0,1,1.35-3.71,5.14,5.14,0,0,1,3.74-1.31h9.51q11,0,17.29,6.64T246,419q0,12.2-6.36,19.65T222.42,446.1Zm.22-46.67h-9.07q-1,0-1,1.14v39.71q0,1.14,1,1.14h9.07q8.92,0,13.75-5.94t4.83-16.11q0-9.44-4.76-14.69T222.65,399.43Z" transform="translate(-92.95 -34.54)"/><path class="cls-2" d="M257.3,398.06a2.93,2.93,0,0,1-2.25-1,3.16,3.16,0,0,1-.88-2.21,3.08,3.08,0,0,1,.92-2.23,3,3,0,0,1,2.21-.94,3.11,3.11,0,0,1,2.23.9,3,3,0,0,1,.94,2.27,3.06,3.06,0,0,1-.9,2.29A3.11,3.11,0,0,1,257.3,398.06ZM259.66,444q0,2.32-2.43,2.32A2,2,0,0,1,255,444V409.64a2.34,2.34,0,0,1,4.68,0Z" transform="translate(-92.95 -34.54)"/><path class="cls-2" d="M300.8,442.63q0,9.66-4.39,14.53T283.59,462a20.92,20.92,0,0,1-8.22-1.77q-4.17-1.77-4.17-3.5a2.73,2.73,0,0,1,.63-1.86,1.78,1.78,0,0,1,1.33-.72,4.75,4.75,0,0,1,2.1.85,23.33,23.33,0,0,0,4.37,2,14,14,0,0,0,4.11.57q6.19,0,9.29-3.45t3.1-10.34v-3.65a12.26,12.26,0,0,1-4.63,4.9,13.09,13.09,0,0,1-6.88,1.81A14.23,14.23,0,0,1,273,441.47q-4.35-5.36-4.35-14.69t4.48-14.62a15,15,0,0,1,12.07-5.33,13.27,13.27,0,0,1,6.36,1.53,11.88,11.88,0,0,1,4.59,4.37v-3.1q0-2.29,2.4-2.29a2,2,0,0,1,2.29,2.29Zm-4.68-19.5a12,12,0,0,0-3.1-8.54,10.3,10.3,0,0,0-7.85-3.3,10.47,10.47,0,0,0-8.63,4.07q-3.24,4.07-3.24,11.41t3.13,11.47a10.31,10.31,0,0,0,8.74,4.17A10.14,10.14,0,0,0,293.1,439a12.36,12.36,0,0,0,3-8.57Z" transform="translate(-92.95 -34.54)"/><path class="cls-2" d="M314.3,398.06a2.92,2.92,0,0,1-2.25-1,3.16,3.16,0,0,1-.88-2.21,3.08,3.08,0,0,1,.92-2.23,3,3,0,0,1,2.21-.94,3.11,3.11,0,0,1,2.23.9,3,3,0,0,1,.94,2.27,3.06,3.06,0,0,1-.9,2.29A3.11,3.11,0,0,1,314.3,398.06ZM316.66,444q0,2.32-2.43,2.32A2,2,0,0,1,312,444V409.64a2.34,2.34,0,0,1,4.68,0Z" transform="translate(-92.95 -34.54)"/><path class="cls-2" d="M334.61,411.89v24a8.69,8.69,0,0,0,1.11,4.87,3.78,3.78,0,0,0,3.35,1.62,6,6,0,0,0,1.51-.17,14.41,14.41,0,0,0,2.1-.87,2.2,2.2,0,0,1,.85-.18,1.7,1.7,0,0,1,1.31.66,2.25,2.25,0,0,1,.57,1.51q0,1.33-2,2.4a9.3,9.3,0,0,1-4.54,1.07q-4.79,0-6.89-2.62t-2.1-7.93V411.89h-4.24q-2.32,0-2.32-2.1t2.32-2.18h4.24v-8.85a2.34,2.34,0,0,1,4.68,0v8.85H341q2.32,0,2.32,2.18t-2.32,2.1Z" transform="translate(-92.95 -34.54)"/><path class="cls-2" d="M381.72,444a2.34,2.34,0,0,1-4.68,0v-3.65a12.93,12.93,0,0,1-4.83,4.87,15.12,15.12,0,0,1-18.47-3.87q-4.2-5.49-4.2-14.56t4.29-14.43q4.29-5.51,12.11-5.51a13.46,13.46,0,0,1,6.49,1.49,12.28,12.28,0,0,1,4.61,4.48v-3.17a2.34,2.34,0,0,1,4.68,0ZM377,423.13a12,12,0,0,0-3.1-8.54,10.31,10.31,0,0,0-7.85-3.3,10.13,10.13,0,0,0-8.74,4.39,18.62,18.62,0,0,0-3.13,11.1q0,7.26,3,11.45t8.89,4.18a10.27,10.27,0,0,0,7.89-3.3,12,12,0,0,0,3.06-8.5Z" transform="translate(-92.95 -34.54)"/><path class="cls-2" d="M397.58,444.07q0,2.25-2.36,2.25a2,2,0,0,1-2.32-2.25V391.72a2,2,0,0,1,2.32-2.25q2.36,0,2.36,2.25Z" transform="translate(-92.95 -34.54)"/></svg>