<?xml version="1.0" encoding="UTF-8" standalone="no"?>
<svg
   xmlns:dc="http://purl.org/dc/elements/1.1/"
   xmlns:cc="http://creativecommons.org/ns#"
   xmlns:rdf="http://www.w3.org/1999/02/22-rdf-syntax-ns#"
   xmlns:svg="http://www.w3.org/2000/svg"
   xmlns="http://www.w3.org/2000/svg"
   viewBox="0 0 826.06665 202.96001"
   height="202.96001"
   width="826.06665"
   xml:space="preserve"
   id="svg2"
   version="1.1"><metadata
     id="metadata8"><rdf:RDF><cc:Work
         rdf:about=""><dc:format>image/svg+xml</dc:format><dc:type
           rdf:resource="http://purl.org/dc/dcmitype/StillImage" /></cc:Work></rdf:RDF></metadata><defs
     id="defs6" /><g
     transform="matrix(1.3333333,0,0,-1.3333333,0,202.96)"
     id="g10"><g
       transform="scale(0.1)"
       id="g12"><path
         id="path14"
         style="fill:#00adef;fill-opacity:1;fill-rule:nonzero;stroke:none"
         d="m 137.84,569.508 c -0.824,-7.469 -7.469,-12.445 -14.942,-12.445 H 12.5117 c -6.63279,0 -13.273419,4.144 -12.4413875,10.789 L 72.2773,1155.45 c 0.8282,6.63 6.629,10.78 14.1055,11.62 l 113.6992,14.1 c 8.301,0.84 12.445,-4.15 11.617,-11.62 L 137.84,569.508" /><path
         id="path16"
         style="fill:#00adef;fill-opacity:1;fill-rule:nonzero;stroke:none"
         d="M 709.648,847.531 674.781,569.508 c -0.828,-7.469 -6.64,-12.445 -14.097,-12.445 H 559.422 c -7.461,0 -13.281,4.144 -12.445,12.445 l 34.027,269.726 c 1.656,14.114 2.496,23.243 2.496,34.86 0,13.277 -2.496,23.238 -8.312,29.879 -8.297,9.953 -21.571,14.101 -41.497,14.101 -35.679,0 -76.343,-8.301 -85.476,-10.785 L 406.719,569.508 c -0.832,-7.469 -6.645,-12.445 -14.946,-12.445 h -101.25 c -7.472,0 -13.281,4.144 -12.445,12.445 l 44.813,361.847 c 4.16,31.54 25.73,41.497 75.527,53.114 43.152,9.969 109.551,19.091 161.84,19.091 59.754,0 103.742,-8.29 128.64,-33.193 15.766,-15.769 24.899,-38.179 24.899,-68.883 0,-19.082 -1.66,-31.539 -4.149,-53.953" /><path
         id="path18"
         style="fill:#00adef;fill-opacity:1;fill-rule:nonzero;stroke:none"
         d="m 1233.3,569.508 c -0.83,-7.469 -6.64,-12.445 -14.94,-12.445 h -100.43 c -7.47,0 -13.27,4.144 -12.45,12.445 l 40.67,331.976 H 995.109 L 948.621,531.336 C 933.688,411.82 858.992,382.77 768.535,382.77 c -32.371,0 -54.781,2.492 -59.754,3.32 -7.472,0.832 -17.429,2.492 -14.941,17.441 l 7.469,48.957 c 1.664,13.282 7.472,15.774 19.086,15.774 9.132,0 18.257,0.828 25.726,0.828 40.672,0 68.055,6.64 75.527,64.73 l 45.649,367.664 h -64.738 c -7.469,0 -12.454,4.149 -11.621,12.442 l 8.3,66.394 c 0.836,7.485 6.641,12.461 14.938,12.461 h 63.91 l 3.316,30.709 c 16.598,131.96 82.993,157.68 206.658,157.68 69.71,0 117.02,-14.1 138.6,-20.74 6.64,-1.66 9.12,-5.82 7.47,-14.11 l -11.62,-58.93 c -1.66,-7.47 -4.99,-12.45 -14.12,-10.78 -23.23,3.31 -61.41,11.61 -111.2,11.61 -66.4,0 -80.51,-10.8 -87.98,-70.54 l -3.32,-24.899 h 263.09 c 9.13,0 14.94,-6.644 14.11,-15.773 l -49.79,-407.5" /><path
         id="path20"
         style="fill:#00adef;fill-opacity:1;fill-rule:nonzero;stroke:none"
         d="M 1795.96,847.531 1761.1,569.508 c -0.83,-7.469 -6.64,-12.445 -14.11,-12.445 h -101.25 c -7.47,0 -13.28,4.144 -12.45,12.445 l 34.03,269.726 c 1.66,14.114 2.49,23.243 2.49,34.86 0,13.277 -2.49,23.238 -8.31,29.879 -8.29,9.953 -21.57,14.101 -41.49,14.101 -35.68,0 -76.35,-8.301 -85.48,-10.785 l -41.51,-337.781 c -0.82,-7.469 -6.63,-12.445 -14.93,-12.445 h -101.25 c -7.47,0 -13.28,4.144 -12.45,12.445 l 44.82,361.847 c 4.14,31.54 25.73,41.497 75.52,53.114 43.16,9.969 109.55,19.091 161.84,19.091 59.75,0 103.73,-8.29 128.64,-33.193 15.77,-15.769 24.9,-38.179 24.9,-68.883 0,-19.082 -1.67,-31.539 -4.15,-53.953" /><path
         id="path22"
         style="fill:#00adef;fill-opacity:1;fill-rule:nonzero;stroke:none"
         d="m 2075.61,1064.15 c -1.65,-15.77 -9.95,-21.59 -25.73,-21.59 h -79.66 c -14.12,0 -22.41,4.99 -20.76,21.59 l 11.62,95.45 c 1.66,14.94 9.97,21.57 25.72,21.57 h 80.51 c 13.29,0 20.76,-4.98 20.76,-17.42 0,-0.84 0,-3.32 -0.84,-9.14 z m -59.75,-494.642 c -0.83,-7.469 -7.46,-12.445 -14.94,-12.445 h -101.25 c -6.64,0 -12.46,4.144 -11.63,12.445 l 48.98,400.859 c 0.82,7.469 7.47,12.453 15.76,12.453 h 100.42 c 7.47,0 12.46,-4.152 11.62,-12.453 l -48.96,-400.859" /><path
         id="path24"
         style="fill:#00adef;fill-opacity:1;fill-rule:nonzero;stroke:none"
         d="m 2439.94,913.926 c -0.84,-7.465 -6.65,-12.442 -14.12,-12.442 h -110.38 l -22.41,-175.113 c -1.66,-10.801 -4.15,-32.371 -4.15,-46.484 0,-13.278 2.49,-24.059 11.62,-30.711 7.47,-4.985 19.09,-8.297 36.52,-8.297 24.9,0 46.47,4.148 58.93,6.648 9.13,1.649 11.61,-4.148 12.44,-9.132 l 4.15,-53.946 c 0.83,-10.789 -3.32,-15.773 -13.27,-19.09 -12.45,-4.152 -50.63,-14.949 -106.24,-14.949 -45.64,0 -79.67,7.485 -102.08,25.738 -21.57,18.266 -31.53,44.825 -31.53,83.829 0,20.738 3.32,43.98 5.8,61.41 l 46.47,381.773 c 1.67,11.61 6.65,17.43 18.27,19.91 l 96.27,16.6 c 11.62,1.66 18.26,-3.32 16.6,-14.1 l -16.6,-132.789 h 110.39 c 7.46,0 12.44,-4.144 11.61,-12.461 l -8.29,-66.394" /><path
         id="path26"
         style="fill:#00adef;fill-opacity:1;fill-rule:nonzero;stroke:none"
         d="m 2725.4,919.742 c -76.36,0 -93.77,-66.394 -97.1,-131.961 95.45,4.985 169.32,-2.5 169.32,67.235 0,45.636 -28.23,64.726 -72.22,64.726 z m -94.61,-202.504 h -9.96 v -13.281 c 0,-28.215 10.8,-47.312 34.03,-58.93 19.92,-9.125 46.47,-13.269 79.67,-13.269 48.14,0 94.62,14.101 117.03,19.918 7.47,1.652 14.1,-4.149 14.95,-12.457 l 5.79,-48.141 c 0.84,-9.945 -4.98,-14.93 -10.77,-17.418 -53.96,-19.918 -111.23,-27.39 -167.66,-27.39 -142.76,0 -196.69,63.078 -196.69,179.269 0,91.285 29.87,174.289 61.41,213.289 39,48.141 105.4,64.732 175.13,64.732 108.71,0 185.06,-28.212 185.06,-141.083 0,-136.938 -115.36,-142.754 -287.99,-145.239" /><path
         id="path28"
         style="fill:#80cc28;fill-opacity:1;fill-rule:nonzero;stroke:none"
         d="m 3584.36,1082.4 c -0.82,-7.46 -7.47,-13.27 -14.94,-13.27 h -283.01 l -18.27,-146.903 h 270.58 c 7.47,0 12.42,-4.153 11.6,-12.454 l -9.12,-76.343 c -0.82,-7.473 -7.48,-12.453 -14.95,-12.453 H 3255.7 l -19.91,-164.332 h 283 c 7.46,0 12.44,-3.317 11.64,-12.454 l -9.15,-74.683 c -0.82,-7.469 -6.63,-12.445 -14.94,-12.445 H 3100.5 c -6.64,0 -13.27,4.144 -12.43,13.277 l 72.19,586.76 c 0.82,7.47 8.29,13.28 15.78,13.28 h 405.83 c 6.64,0 12.44,-4.15 11.62,-12.45 l -9.13,-75.53" /><path
         id="path30"
         style="fill:#80cc28;fill-opacity:1;fill-rule:nonzero;stroke:none"
         d="M 4070.67,847.531 4035.8,569.508 c -0.83,-7.469 -6.64,-12.445 -14.13,-12.445 h -101.22 c -7.48,0 -13.3,4.144 -12.46,12.445 l 34.02,269.726 c 1.67,14.114 2.5,23.243 2.5,34.86 0,13.277 -2.5,23.238 -8.31,29.879 -8.29,9.953 -21.56,14.101 -41.48,14.101 -35.68,0 -76.37,-8.301 -85.5,-10.785 l -41.49,-337.781 c -0.83,-7.469 -6.64,-12.445 -14.94,-12.445 h -101.25 c -7.48,0 -13.27,4.144 -12.44,12.445 l 44.83,361.847 c 4.12,31.54 25.72,41.497 75.5,53.114 43.16,9.969 109.56,19.091 161.85,19.091 59.74,0 103.73,-8.29 128.63,-33.193 15.75,-15.769 24.89,-38.179 24.89,-68.883 0,-19.082 -1.65,-31.539 -4.13,-53.953" /><path
         id="path32"
         style="fill:#80cc28;fill-opacity:1;fill-rule:nonzero;stroke:none"
         d="m 4382.68,919.742 c -76.35,0 -93.77,-66.394 -97.11,-131.961 95.44,4.985 169.3,-2.5 169.3,67.235 0,45.636 -28.21,64.726 -72.19,64.726 z m -94.62,-202.504 h -9.94 v -13.281 c 0,-28.215 10.79,-47.312 34.02,-58.93 19.91,-9.125 46.48,-13.269 79.65,-13.269 48.16,0 94.62,14.101 117.04,19.918 7.46,1.652 14.09,-4.149 14.93,-12.457 l 5.82,-48.141 c 0.81,-9.945 -5,-14.93 -10.79,-17.418 -53.95,-19.918 -111.22,-27.39 -167.65,-27.39 -142.73,0 -196.69,63.078 -196.69,179.269 0,91.285 29.88,174.289 61.41,213.289 39.03,48.141 105.4,64.732 175.11,64.732 108.74,0 185.08,-28.212 185.08,-141.083 0,-136.938 -115.37,-142.754 -287.99,-145.239" /><path
         id="path34"
         style="fill:#80cc28;fill-opacity:1;fill-rule:nonzero;stroke:none"
         d="m 4932.06,924.727 c -0.82,-9.137 -2.48,-16.602 -16.59,-16.602 -48.15,0 -91.3,-5.809 -107.07,-9.125 l -39.84,-329.492 c -0.83,-7.469 -6.63,-12.445 -14.94,-12.445 h -101.25 c -5.8,0 -13.28,4.144 -12.44,12.445 l 44.82,362.68 c 3.3,24.078 16.6,33.199 43.15,43.16 50.62,17.433 126.16,25.732 183.41,27.382 h 8.3 c 11.63,0 21.58,-2.49 19.93,-17.425 l -7.48,-60.578" /><path
         id="path36"
         style="fill:#80cc28;fill-opacity:1;fill-rule:nonzero;stroke:none"
         d="m 5240.78,918.91 c -10.79,9.961 -27.39,14.942 -51.45,14.942 -39.02,0 -61.41,-13.282 -73.04,-39 -9.12,-18.266 -13.27,-46.489 -13.27,-67.231 0,-19.098 4.97,-33.203 14.93,-43.152 10.79,-9.965 26.55,-15.774 51.45,-15.774 38.18,0 60.59,13.274 73.04,37.344 9.13,19.082 13.28,46.477 13.28,67.231 0,20.746 -4.15,35.687 -14.94,45.64 z m -14.11,-390.07 c -10.78,10.797 -31.55,12.453 -55.6,12.453 h -56.41 c -20.77,0 -45.66,-3.324 -58.96,-21.594 -6.63,-9.949 -9.12,-22.398 -9.12,-33.187 0,-16.582 8.3,-27.383 22.42,-34.024 14.94,-6.648 38.17,-9.129 68.05,-9.129 36.51,0 67.21,5.801 83.83,23.231 9.11,10.789 14.09,24.91 14.09,39.019 0,9.95 -2.49,18.246 -8.3,23.231 z m 220.77,402.515 c 0,-4.144 -1.67,-6.628 -7.46,-10.785 -19.09,-12.445 -40.69,-17.429 -60.59,-17.429 -14.12,0 -15.79,1.66 -34.04,4.984 10.8,-9.957 25.74,-31.539 25.74,-65.566 0,-34.856 -15.78,-71.375 -40.67,-95.446 -36.53,-34.855 -92.94,-48.129 -156.86,-48.129 h -49.82 c -18.23,0 -29.02,-5.816 -35.65,-14.953 -5,-6.629 -6.67,-14.929 -6.67,-24.054 0,-10.801 3.34,-17.43 11.63,-21.582 9.13,-4.977 24.9,-5.809 46.48,-5.809 h 78.86 c 43.14,0 87.96,-5.813 115.35,-30.707 16.6,-14.945 25.72,-37.356 25.72,-68.895 0,-39.004 -14.91,-77.175 -43.15,-104.562 -41.51,-40.672 -110.38,-57.262 -191.72,-57.262 -73.85,0 -128.64,6.641 -162.66,24.07 -27.38,14.93 -40.69,36.5 -40.69,68.04 0,18.261 5,38.179 14.97,54.781 21.57,36.527 63.89,39.844 87.97,45.656 l 1.65,13.27 c -19.09,4.156 -37.33,6.64 -50.63,14.941 -11.6,7.461 -18.27,19.918 -18.27,43.152 0,19.09 4.17,36.52 14.97,50.629 18.24,23.242 50.62,29.039 87.97,34.856 -14.96,4.152 -39.01,10.8 -58.11,31.539 -14.1,14.941 -24.07,37.34 -24.07,72.211 0,43.156 14.94,91.285 44.83,122.824 37.35,40.676 97.1,56.431 173.44,56.431 53.12,0 71.38,-6.634 105.4,-15.755 9.13,-2.5 19.1,-3.336 31.56,-3.336 13.26,0 28.21,1.668 40.65,4.984 15.76,4.152 32.39,12.447 44.82,18.257 5,2.5 7.47,2.5 8.29,2.5 4.16,0 6.66,-2.5 7.47,-8.31 l 12.46,-65.56 c 0.83,-2.488 0.83,-4.152 0.83,-4.985" /><path
         id="path38"
         style="fill:#80cc28;fill-opacity:1;fill-rule:nonzero;stroke:none"
         d="m 5737.06,509.75 c -31.55,-77.18 -67.24,-126.98 -176.78,-126.98 -34.85,0 -69.71,2.492 -83.83,5.812 -7.47,1.668 -12.44,5.809 -10.79,15.77 l 7.48,51.457 c 1.64,11.621 4.97,16.601 18.27,16.601 12.42,0 30.69,-1.672 48.12,-1.672 43.16,0 65.56,13.293 78.83,48.153 l 14.97,38.172 h -62.26 c -8.29,0 -12.46,5.812 -13.28,13.277 l -66.38,401.687 c -1.67,11.625 5.79,20.754 17.42,20.754 h 96.26 c 9.97,0 15.78,-2.5 16.6,-14.113 l 37.35,-341.934 h 22.4 l 112.04,341.102 c 4.16,11.617 10.8,14.945 21.59,14.945 h 97.1 c 9.13,0 14.09,-5.812 14.09,-13.277 0,-1.668 0,-4.156 -1.64,-8.309 L 5737.06,509.75" /><path
         id="path40"
         style="fill:#80cc28;fill-opacity:1;fill-rule:evenodd;stroke:none"
         d="m 2805.35,457.211 c 0,0 -630.29,-250.66 -1012.63,-321.621 C 1482.71,78.0195 1163.46,54.2891 831.641,92.3086 673.203,110.469 574.652,154.301 528.324,220.219 c -38.969,55.34 -19.289,112.011 0.59,168.812 10.277,29.75 38.953,88.797 38.953,88.797 l -19.668,-6.297 c 0,0 -118.129,-151.23 -117.722,-229.961 C 431.113,85.7188 623.004,2.05859 978.43,0.0585938 1235.52,-1.39063 1479.36,24.4609 1712.83,70.0117 2144.19,154.18 2796.85,436.121 2796.85,436.121 l 8.5,21.09" /><path
         id="path42"
         style="fill:#00adef;fill-opacity:1;fill-rule:evenodd;stroke:none"
         d="m 3820.64,1065.04 c 0,0 630.31,250.64 1012.61,321.6 310.04,57.57 629.26,81.3 961.11,43.29 158.41,-18.16 256.99,-62 303.3,-127.91 38.96,-55.34 19.3,-112.01 -0.59,-168.81 -10.27,-29.75 -38.94,-88.81 -38.94,-88.81 l 19.66,6.31 c 0,0 118.12,151.23 117.72,229.96 -0.63,155.84 -192.53,239.51 -547.95,241.51 -257.08,1.45 -500.93,-24.4 -734.39,-69.95 -431.36,-84.18 -1084.03,-366.12 -1084.03,-366.12 l -8.5,-21.07" /><path
         id="path44"
         style="fill:#80cc28;fill-opacity:1;fill-rule:nonzero;stroke:none"
         d="m 5838.46,459.43 c -1.26,0.91 -3.17,1.359 -5.88,1.359 h -8.77 l -1.81,-14.32 8.78,0.351 c 4.06,0.11 6.66,1.008 8.01,3.258 0.91,1.461 1.25,3.613 1.25,5.301 0,1.691 -0.46,3.16 -1.58,4.051 z m 11.61,-10.141 c -1.92,-2.93 -5.18,-4.629 -10.6,-5.289 l -0.21,-1.93 c 2.91,-0.218 5.27,-0.558 6.97,-1.582 2.24,-1.347 3.28,-3.718 3.28,-7.769 0,-1.02 -0.13,-2.149 -0.24,-3.16 l -0.46,-7.547 c 0,-0.91 -0.56,-1.25 -1.22,-1.25 h -9.36 c -0.68,0 -1.13,0.34 -1.13,1.027 l 0.57,9 c 0,0.91 0.11,2.16 0.11,3.16 0,1.582 -0.58,2.602 -1.47,3.391 -1.68,1.351 -4.5,1.582 -7.55,1.691 l -7.55,0.34 -2.16,-17.359 c -0.1,-0.684 -0.78,-1.25 -1.46,-1.25 h -9.14 c -0.66,0 -1.21,0.566 -1.11,1.25 l 5.63,45.66 c 0.11,0.789 0.8,1.348 1.69,1.348 h 22.33 c 5.4,0 9.69,-0.899 12.28,-3.27 1.93,-1.809 2.95,-3.949 2.95,-8.012 0,-2.808 -0.7,-6.078 -2.15,-8.449 z m 11.73,21.859 c -4.63,5.313 -13.33,7.454 -27.96,7.454 -14.79,0 -23.91,-2.602 -29.86,-7.782 -4.63,-4.058 -7.24,-9.57 -8.94,-17.019 -1.34,-5.973 -2.23,-12.18 -2.23,-18.379 0,-7.66 1,-13.301 4.61,-17.363 4.61,-5.297 13.3,-7.438 28.07,-7.438 14.66,0 23.89,2.481 29.87,7.789 4.51,3.93 7.1,9.559 8.79,17.012 1.36,5.976 2.38,12.187 2.38,18.379 0,7.66 -1.15,13.301 -4.73,17.347 z m 8.32,-49.476 c -7.1,-13.531 -20.61,-20.184 -45.76,-20.184 -17.36,0 -28.4,3.16 -34.82,9.582 -5.32,5.18 -7.46,12.641 -7.46,22.211 0,10.828 2.25,25.028 7.11,34.27 7.21,13.531 20.63,20.187 45.76,20.187 17.48,0 28.43,-3.269 34.85,-9.59 5.29,-5.179 7.42,-12.628 7.42,-22.207 0,-10.82 -2.13,-25.019 -7.1,-34.269" /></g></g></svg>