<svg id="Layer_1" data-name="Layer 1" xmlns="http://www.w3.org/2000/svg" viewBox="0 0 60.83 40.83"><defs><style>.cls-1{fill:#231f20;}.cls-2{fill:#edaa00;}.cls-3{fill:#61b4e4;}.cls-4{fill:#babf10;}.cls-5{fill:#d9272e;}</style></defs><title>kind-logo</title><path id="Shape" class="cls-1" d="M.09.08V40.92H3.74V35L5.48,33.2,11,40.92h4.71L8.07,30.56l7.22-7.26h3V40.92H22V23.3H26.7V40.92h3.42V28.44l7.22,12.48h3.73V23.3h4.64V40.92h7.6a6.39,6.39,0,0,0,5.93-3.25,12,12,0,0,0,1.45-6,12.7,12.7,0,0,0-.3-2.87,7,7,0,0,0-1.29-2.87,5.59,5.59,0,0,0-3-2.19,8.14,8.14,0,0,0-2.59-.38h7.45V.08ZM56,27.83A8.75,8.75,0,0,1,56.88,32a10.54,10.54,0,0,1-.53,3.33,3.65,3.65,0,0,1-3.65,2.57H49.28V26.4H52.7c1.67,0,2.81.45,3.35,1.44ZM3.73,30.56V23.3h6.84L3.73,30.56Zm33.84,5.07-7-12.25h7V35.62Z" transform="translate(-0.09 -0.08)"/><polygon id="Shape-2" data-name="Shape" class="cls-2" points="0 0 15.21 0 15.21 22.68 0 22.68 0 0"/><polygon id="Shape-3" data-name="Shape" class="cls-3" points="45.62 0 60.83 0 60.83 22.68 45.62 22.68 45.62 0"/><polygon id="Shape-4" data-name="Shape" class="cls-4" points="30.41 0 45.62 0 45.62 22.68 30.41 22.68 30.41 0"/><polygon id="Shape-5" data-name="Shape" class="cls-5" points="15.21 0 30.41 0 30.41 22.68 15.21 22.68 15.21 0"/><path id="Shape-6" data-name="Shape" class="cls-1" d="M59,24.64a1,1,0,1,0,1-1,1,1,0,0,0-1,1m1.7,0a.73.73,0,1,1-.73-.75.74.74,0,0,1,.73.75" transform="translate(-0.09 -0.08)"/><path id="Shape-7" data-name="Shape" class="cls-1" d="M59.63,25.08h.15v-.37h.13l.23.37h.18l-.25-.37a.24.24,0,0,0,.23-.24c0-.17-.11-.25-.33-.25h-.34v.87h0Zm.15-.74H60c.09,0,.19,0,.19.12s-.1.13-.21.13h-.16v-.25Z" transform="translate(-0.09 -0.08)"/></svg>