<?xml version="1.0" encoding="UTF-8" standalone="no"?>
<svg
   xmlns:dc="http://purl.org/dc/elements/1.1/"
   xmlns:cc="http://creativecommons.org/ns#"
   xmlns:rdf="http://www.w3.org/1999/02/22-rdf-syntax-ns#"
   xmlns:svg="http://www.w3.org/2000/svg"
   xmlns="http://www.w3.org/2000/svg"
   viewBox="0 0 960 145.30667"
   height="145.30667"
   width="960"
   xml:space="preserve"
   id="svg2"
   version="1.1"><metadata
     id="metadata8"><rdf:RDF><cc:Work
         rdf:about=""><dc:format>image/svg+xml</dc:format><dc:type
           rdf:resource="http://purl.org/dc/dcmitype/StillImage" /></cc:Work></rdf:RDF></metadata><defs
     id="defs6" /><g
     transform="matrix(1.3333333,0,0,-1.3333333,0,145.30667)"
     id="g10"><g
       transform="scale(0.1)"
       id="g12"><path
         id="path14"
         style="fill:#4c5054;fill-opacity:1;fill-rule:nonzero;stroke:none"
         d="M 1611.67,832.246 V 576.715 h 112.75 c 16.46,0 24.69,8.449 24.69,25.351 v 204.825 c 0,16.902 -8.23,25.355 -24.69,25.355 z m 0,-440.344 V 58.9805 h -213.5 V 1016.39 h 362.95 c 77.39,-0.45 129.21,-13.57 155.45,-39.367 26.24,-26.687 39.36,-67.828 39.36,-123.429 V 622.082 c 0,-55.598 -24.24,-96.742 -72.72,-123.43 -12.45,-5.336 -18.9,-10.23 -19.35,-14.675 0.45,-4.004 6.9,-8.676 19.35,-14.012 52.93,-26.688 79.4,-67.832 79.4,-123.43 V 58.9805 h -213.5 V 366.551 c 0,16.902 -8.23,25.351 -24.69,25.351 h -112.75" /><path
         id="path16"
         style="fill:#4c5054;fill-opacity:1;fill-rule:nonzero;stroke:none"
         d="M 2583.75,1016.39 V 832.246 H 2318.22 V 630.09 h 228.17 V 445.945 H 2318.22 V 243.121 h 265.53 V 58.9805 h -479.7 V 243.121 h 0.67 v 773.269 h 479.03" /><path
         id="path18"
         style="fill:#4c5054;fill-opacity:1;fill-rule:nonzero;stroke:none"
         d="m 2992.74,853.594 -66.05,-430.332 h 131.43 z M 2822.61,1016.39 H 3162.2 L 3335.67,58.9805 h -213.5 L 3090.81,239.785 H 2893.99 L 2862.64,58.9805 h -213.5 l 173.47,957.4095" /><path
         id="path20"
         style="fill:#4c5054;fill-opacity:1;fill-rule:nonzero;stroke:none"
         d="m 3421.74,1016.39 h 213.5 V 243.121 h 241.52 V 58.9805 H 3421.74 V 1016.39" /><path
         id="path22"
         style="fill:#4c5054;fill-opacity:1;fill-rule:nonzero;stroke:none"
         d="M 4271.06,832.246 V 58.9805 h -213.5 V 832.246 h -175.47 v 184.144 h 564.44 V 832.246 h -175.47" /><path
         id="path24"
         style="fill:#4c5054;fill-opacity:1;fill-rule:nonzero;stroke:none"
         d="M 4730.75,832.246 V 576.715 h 112.76 c 16.45,0 24.68,8.449 24.68,25.351 v 204.825 c 0,16.902 -8.23,25.355 -24.68,25.355 z m 0,-440.344 V 58.9805 h -213.5 V 1016.39 h 362.95 c 77.39,-0.45 129.21,-13.57 155.46,-39.367 26.24,-26.687 39.36,-67.828 39.36,-123.429 V 622.082 c 0,-55.598 -24.24,-96.742 -72.72,-123.43 -12.46,-5.336 -18.91,-10.23 -19.35,-14.675 0.44,-4.004 6.89,-8.676 19.35,-14.012 52.93,-26.688 79.39,-67.832 79.39,-123.43 V 58.9805 h -213.5 V 366.551 c 0,16.902 -8.23,25.351 -24.68,25.351 h -112.76" /><path
         id="path26"
         style="fill:#4c5054;fill-opacity:1;fill-rule:nonzero;stroke:none"
         d="m 5568.74,1016.39 h 213.49 V 221.773 c 0,-55.601 -13.12,-96.742 -39.36,-123.4292 -26.24,-25.8047 -78.06,-38.9219 -155.45,-39.3633 h -174.81 c -77.39,0.4414 -129.21,13.5586 -155.45,39.3633 -26.24,26.6872 -39.36,67.8282 -39.36,123.4292 v 794.617 h 213.5 V 268.477 c 0,-16.903 8,-25.356 24.01,-25.356 h 88.74 c 16.46,0 24.69,8.453 24.69,25.356 v 747.913" /><path
         id="path28"
         style="fill:#4c5054;fill-opacity:1;fill-rule:nonzero;stroke:none"
         d="m 6477.44,652.105 h -200.16 v 154.786 c 0,16.902 -8.22,25.355 -24.68,25.355 h -88.74 c -16.01,0 -24.02,-8.453 -24.02,-25.355 V 268.477 c 0,-16.903 8.01,-25.356 24.02,-25.356 h 88.74 c 16.46,0 24.68,8.453 24.68,25.356 v 154.785 h 200.16 V 221.773 c 0,-55.601 -13.12,-96.742 -39.36,-123.4292 -26.25,-25.8047 -78.06,-38.9219 -155.46,-39.3633 h -161.46 c -77.39,0.4414 -129.21,13.5586 -155.45,39.3633 -26.24,26.6872 -39.36,67.8282 -39.36,123.4292 v 631.821 c 0,55.601 13.12,96.742 39.36,123.429 26.24,25.797 78.06,38.917 155.45,39.367 h 161.46 c 77.4,-0.45 129.21,-13.57 155.46,-39.367 26.24,-26.687 39.36,-67.828 39.36,-123.429 V 652.105" /><path
         id="path30"
         style="fill:#4c5054;fill-opacity:1;fill-rule:nonzero;stroke:none"
         d="M 6822.37,484.641 V 58.9805 H 6608.88 V 1016.39 h 213.49 V 612.074 l 148.12,404.316 h 216.17 L 7013.19,547.359 7200,58.9805 H 6983.83 L 6822.37,484.641" /><path
         id="path32"
         style="fill:#e9b40e;fill-opacity:1;fill-rule:nonzero;stroke:none"
         d="m 846.992,395.305 h 304.928 l 0.13,347.148 v 0.781 c 0,191.379 -155.011,346.576 -346.335,346.576 -2.324,0 -455.031,0 -678.172,0 L 0,1089.55 180.664,860.797 h 622.727 c 63.863,0 115.558,-51.559 115.558,-115.363 l 0.137,-117.371 H 366.09 L 856.016,0.371094 1156.17,0 846.992,395.305" /></g></g></svg>