<?xml version="1.0" encoding="UTF-8" ?>
<!DOCTYPE svg PUBLIC "-//W3C//DTD SVG 1.1//EN" "http://www.w3.org/Graphics/SVG/1.1/DTD/svg11.dtd">
<svg width="602pt" height="302pt" viewBox="0 0 602 302" version="1.1" xmlns="http://www.w3.org/2000/svg">
<g id="#fdfefcff">
</g>
<g id="#099c00ff">
<path fill="#099c00" opacity="1.00" d=" M 1.01 1.01 C 101.00 0.99 200.99 0.99 300.98 1.01 C 301.02 34.34 300.99 67.67 301.00 101.00 C 267.67 101.01 234.34 100.98 201.02 101.01 C 200.97 167.67 201.03 234.33 200.98 300.99 C 167.52 301.01 134.05 301.02 100.58 300.99 C 100.42 234.48 100.52 167.97 100.53 101.46 C 67.36 101.41 34.18 101.07 1.01 100.98 C 0.99 67.66 0.98 34.33 1.01 1.01 Z" />
<path fill="#099c00" opacity="1.00" d=" M 401.02 1.01 C 467.67 0.99 534.33 0.99 600.99 1.01 C 601.02 34.33 601.01 67.66 600.99 100.98 C 534.33 101.02 467.66 100.99 401.00 101.00 C 401.01 67.67 400.98 34.34 401.02 1.01 Z" />
<path fill="#099c00" opacity="1.00" d=" M 301.00 101.00 C 334.33 101.00 367.67 101.00 401.00 101.00 C 401.01 134.33 400.98 167.66 401.01 200.99 C 467.67 201.03 534.33 200.97 600.99 201.02 C 601.01 234.34 601.02 267.66 600.99 300.99 C 501.00 301.01 401.01 301.01 301.02 300.99 C 300.98 234.33 301.01 167.66 301.00 101.00 Z" />
</g>
</svg>
