<?xml version="1.0" encoding="utf-8"?>
<!-- Generator: Adobe Illustrator 20.0.0, SVG Export Plug-In . SVG Version: 6.00 Build 0)  -->
<svg version="1.1" id="original" xmlns="http://www.w3.org/2000/svg" xmlns:xlink="http://www.w3.org/1999/xlink" x="0px" y="0px"
	 viewBox="0 0 580.2 307.2" style="enable-background:new 0 0 580.2 307.2;" xml:space="preserve">
<style type="text/css">
	.st0{fill:#4D9D45;}
	.st1{fill:#65656A;}
</style>
<g>
	<path class="st0" d="M21.3,24.6h14.7v70c0,19,10.6,34.7,31,34.7c20.4,0,31-15.7,31-34.7v-70h14.7v74.3c0,25.2-19,44.2-46.1,44.2
		c-26.4,0-45.4-19-45.4-44.2V24.6z"/>
	<polygon class="st0" points="140.1,24.6 140.1,134.9 140.1,141.2 126.3,141.2 126.3,24.6 	"/>
	<polygon class="st0" points="160.9,41.9 174.7,41.9 174.7,61.2 187.4,61.2 187.4,73.4 174.7,73.4 174.7,131.8 183.1,131.8 
		183.1,141.2 160.9,141.2 160.9,73.4 149.8,73.4 149.8,61.2 160.9,61.2 	"/>
	<path class="st0" d="M335.5,92.2c0-13.8-8-20-17.5-20c-11.5,0-20.1,7.2-20.1,20.6v48.4h-13.8v-49c0-13.8-8-20-17.5-20
		c-11.5,0-20.1,7.2-20.1,20.6v38.9h8.4v9.4h-22.3v-80h13.8v9.5h0.3c3.7-8.1,13.7-11.4,22.1-11.4c8.1,0,17,2.1,23.6,13.8
		c4.9-10.1,15.5-13.8,26.1-13.8c17.2,0,30.7,10.3,30.7,31.3v41.1h8.4l0,9.4h-22.2V92.2z"/>
	<path class="st0" d="M418.7,87.6c0-13.2-13.2-16.1-23.9-16.1c-7.5,0-14.6,1.8-22.1,5.5l-6-11.5c12.1-5.1,21.6-6.1,28.9-6.1
		c19.2,0,37,8.1,37,27.2v45.2h8.4l0,9.4h-21.3v-8.6c-7.1,7.4-14.9,10.4-25.5,10.4c-19.5,0-34.8-10.9-34.8-28.7
		c0-14.6,12.4-27.5,34.7-27.5c8.4,0,17.3,2.5,24.7,9.1V87.6z M396.6,99c-16.9,0-22.6,8.1-22.6,16s5.7,16,22.6,16
		c13.7,0,21.9-8.1,21.9-7.7c0,0,0-6.8,0-8.2c0-1.5,0-7.4,0-7.4S410.4,99,396.6,99"/>
	<polygon class="st0" points="450.4,41.9 464.2,41.9 464.2,61.2 476.9,61.2 476.9,73.4 464.2,73.4 464.2,131.8 472.6,131.8 
		472.6,141.2 450.4,141.2 450.4,73.4 439.3,73.4 439.3,61.2 450.4,61.2 	"/>
	<path class="st0" d="M555.4,125.7c-10.7,12-22.1,17.3-36.1,17.3c-28.4,0-43.6-20.6-43.6-41.9c0-22.7,16.3-41.8,41.3-41.8
		c24.7,0,41.9,18.9,41.9,47.1h-68.5c2.2,13.7,13.2,23.6,28.7,23.6c9.8,0,18.6-4.6,25.6-12.9L555.4,125.7z M543.2,95.2
		c-1.4-13.2-12.1-22.9-26.4-22.9c-16.9,0-25,12-26.4,22.9H543.2z"/>
	<path class="st1" d="M217.9,47c0,5.1-4.2,9.3-9.3,9.3c-5.1,0-9.3-4.2-9.3-9.3c0-5.1,4.2-9.3,9.3-9.3
		C213.7,37.7,217.9,41.9,217.9,47 M215.7,105l6.5,0V73.4v-6.2c0-3.4-2.6-6.1-6-6.1h-15c-3.4,0-6.1,2.7-6.1,6.1l0,6V105l6.1,0v36.2
		l14.4,0L215.7,105z"/>
	<path class="st1" d="M135.6,176.2c-0.6-4.2-3-6.7-6.8-6.7c-5,0-6.3,3.3-6.3,5.7c0,2.6,1.7,4.3,5.1,5.6l4.4,1.7
		c5.6,2.1,8.2,5.4,8.2,9.6c0,5.7-4.5,9.8-11.3,9.8c-6.4,0-10.9-3.4-11.5-10.4h4.4c0.4,3.8,2.3,6.5,7.3,6.5c3.8,0,6.6-2.4,6.6-5.5
		c0-2.7-2.3-4.5-5.5-5.7l-4.5-1.8c-5.2-2-7.8-5.1-7.8-9.6c0-6.1,5-9.7,10.8-9.7c5.8,0,10.4,3.5,10.9,10.6H135.6z"/>
	<path class="st1" d="M177,165.6c11.9,0,18.6,9.4,18.6,18.1c0,8.7-6.7,18.1-18.6,18.1c-11.9,0-18.6-9.4-18.6-18.1
		C158.3,175.1,165,165.6,177,165.6 M177,197.7c7.2,0,13.9-5.6,13.9-14c0-8.3-6.8-14-13.9-14c-7.2,0-13.9,5.6-13.9,14
		C163.1,192.1,169.8,197.7,177,197.7"/>
	<polygon class="st1" points="215.3,166.2 233.5,166.2 233.5,170.4 219.8,170.4 219.8,181.5 233.5,181.5 233.5,185.7 219.8,185.7 
		219.8,201.3 215.3,201.3 	"/>
	<polygon class="st1" points="259.5,170.4 250.7,170.4 250.7,166.2 272.7,166.2 272.7,170.4 263.9,170.4 263.9,201.3 259.5,201.3 	
		"/>
	<polygon class="st1" points="329.1,166.2 333.8,166.2 323,201.3 319.6,201.3 311.1,173.5 311,173.5 302.6,201.3 299.2,201.3 
		288.3,166.2 293.1,166.2 300.9,192.9 301,192.9 309,166.2 313.2,166.2 321.2,193 321.3,193 	"/>
	<path class="st1" d="M371.3,193.2h-16.4l-3.2,8.2h-4.9l14.3-35.1h3.9l14.3,35.1h-4.9L371.3,193.2z M363.1,172l-6.7,17.2h13.3
		L363.1,172z"/>
	<path class="st1" d="M402,186.4v15h-4.4v-35.1h10.1c6.8,0,11.8,3.9,11.8,10.6c0,6.3-5,10.2-10.7,10.5l13.7,14h-6.2L402,186.4z
		 M402,183.6c0.6,0,1.3,0,3.9,0c6.8,0,9.2-3,9.2-6.8c0-4.1-2.8-6.8-7.4-6.8H402V183.6z"/>
	<polygon class="st1" points="440.6,166.2 458.8,166.2 458.8,170.4 445.1,170.4 445.1,181.5 458.8,181.5 458.8,185.7 445.1,185.7 
		445.1,197.2 458.8,197.2 458.8,201.3 440.6,201.3 	"/>
	<g>
		<path class="st0" d="M340.1,245.4c-0.2-1.1-0.4-2.5,0.2-2.9c0.8-0.4,1.5-0.6,2.2-0.6c1.3,0,1.7,0.6,1.7,2
			c-0.3,4.8-0.6,9.7-0.7,14.5c-0.1,2,0.3,3.8,0.5,5.8c0.1,1.1-0.1,1.5-1.2,1.6c-2,0.3-2.9-0.6-2.9-2.6c0.2-5.1,0.3-9.9,0.5-15
			C340.3,247.4,340.2,246.5,340.1,245.4z"/>
		<path class="st0" d="M337.5,246.2c-2.5,0.4-4,0.9-6.4,1.4c-0.3,0.1-1.5,0.3-1.5,0.3c0,4-0.1,8.5,0,12.5c0,0.5,0.2,1.1,0.4,1.6
			c0.1,0.2,0.9,1.1,0.5,2.1c-0.5,1.2-1.6,1.7-2.9,1.8c-0.8,0.1-1.4-0.2-1.5-1c-0.1-2.1-0.2-4.2-0.2-6.3c0-3.3,0-6.6,0.1-9.9
			c-1.3,0.3-2.5,0.6-3.7,0.9c-1.6,0.4-2.9-0.4-3.3-1.9c-0.2-0.9,0.3-1.6,1.2-1.7c1.9-0.1,3.8-0.2,5.7-0.3c0.1-1.5,0-12.2,1.2-17.3
			c0.9-3.7,5-4.6,8.1-3.5c0.9,0.3,3.3,1.9,4.8,4.8c0.9,1.7-1,3.1-1.7,2.3c-1.2-1.2-3.2-3.3-5-4c-0.9-0.3-2.7,0-3.1,4.6
			c-0.4,4.5-0.4,11.9-0.3,12.4c2.1-0.3,4.3-0.7,6.4-1C337.5,243.6,339.3,245.8,337.5,246.2z"/>
		<path class="st0" d="M187.8,252.1c-0.7,0.2-2.1,0.7-3.2,0.4c-1.2-0.3-2.1-2.3-0.4-3c1.1-0.5,2.3-0.7,3.5-1.1
			c-0.1-4.4-0.2-9.3-0.4-13.6c-1.3,0.2-2.6,0.6-3.7,0.5c-4.1-0.2-3.1-3-2-3.3c1.8-0.5,2.9-0.5,4.8-0.9c0.2,0,0.5-0.4,0.5-0.6
			c0.1-1,0.7-1.4,1.5-1.5c0.9-0.2,2.1-0.6,2.7,0.4c0.6,0.9,0.7,0.8,1.6,0.8c3.2-0.3,7.1-0.8,10.3-0.9c2.3-0.1,4.5,0.1,6.5,1.3
			c2.2,1.2,2.8,3.8,1.6,6.3c-1.2,2.4-3,4.1-5,5.8c-4.3,3.5-8.7,5.9-13.8,7.7c-0.9,0.3-1.2,0.7-1.1,1.7c0.2,3,0,10.4,0.1,13.4
			c0,0.1,0,0.1,0,0.2c0.2,1.6,0,2-1,2.3c-1.2,0.3-2.7-0.5-2.9-1.5c-0.1-0.4-0.1-0.8-0.1-1.3c0.1-2.1,0.3-4.3,0.4-6.4
			C187.8,257.9,187.8,253,187.8,252.1 M196.9,232.7c-3.2,0.4-5.6,1-5.6,1s0,9.3-0.2,13.7c4.2-1,10.2-4.4,13.7-7.6
			c1.1-1,2.2-2.2,3-3.5c1.1-2,0-4-3.6-4C204.2,232.2,200.2,232.2,196.9,232.7z"/>
		<path class="st0" d="M250,249.5c1.6-1.4,3.2-2.8,5-4.4c2.7-2.3,5.7-4,9.1-4.8c1.2-0.3,2.6-0.3,3.7-0.1c1.8,0.3,2.7,1.7,2.7,3.7
			c0,3-1.3,5.6-3,8c-3.5,4.7-8,7.6-12.8,10.5c-0.8,0.5-1.8,0.6-2.7,0.7c-0.4,0-0.9-0.4-1.1-0.8c-0.1-0.3,0.1-1,0.3-1.3
			c0.3-0.4,0.9-0.7,1.3-1c5.1-3,9.6-6.1,13.1-11.1c0.6-0.9,1-1.9,1.3-2.9c0.5-1.9-0.6-3.1-2.3-2.6c-1.2,0.3-2.4,0.8-3.5,1.5
			c-4.3,2.7-8,5.3-11,9.5c-0.6,0.8-0.9,1.6-0.9,2.6c-0.3,7.1-0.6,14.3-0.1,21.4c0.1,0.9,0.1,1.7,0,2.6c0,0.8-0.3,1.5-1.2,1.7
			c-1.1,0.2-1.9-0.1-2.2-1c-0.2-0.7-0.3-1.4-0.3-2.1c0.1-5.3,0.2-10.6,0.4-15.9c0.2-6.5,0.5-13,0.8-19.6c0.1-1.5,0.8-2.4,2-2.8
			c1.5-0.5,2.3,0.2,2,1.8C250.5,245.4,250.2,247.8,250,249.5z"/>
		<path class="st0" d="M278.2,259.9c0.1-2.5,1.2-5.7,2.6-7.9c2.8-4.3,6.1-8.2,10.5-10.9c1-0.6,2.1-1.1,3.2-1.2
			c2.1-0.3,3.5,1.2,3.5,3.3c0,2-0.9,3.8-2.2,5.3c-3.4,3.9-7.7,6.5-12.6,8.1c-0.8,0.3-1.1,0.7-1.3,1.4c-0.7,3.4,1.6,5.6,5.2,5
			c2.6-0.4,4.8-1.8,6.8-3.4c2.2-1.8,3.2-2.8,5.3-4.6c1.8-1.6,2.6,0.5,1.7,1.5c-3.5,4-5.9,6.6-10.4,8.7c-2.4,1.1-4.7,1.4-7.2,1
			C279.9,265.6,278.1,263.4,278.2,259.9z M283.3,253.4c3.9-1.3,9.4-5.6,11.2-9c0.1-0.3,0-1.3-1-0.8
			C289.3,246,286.3,249.5,283.3,253.4"/>
		<g>
			<path class="st0" d="M240.2,240.1c-3.9-0.2-10.5,2.2-16.9,13.4c-0.2,0.3-3.6,4.5-5.7,6.2c-2,1.6-4.2,3-6.8,3.4
				c-3.6,0.6-5.9-1.6-5.2-5c0.2-0.7,0.4-1.1,1.3-1.4c4.9-1.5,9.1-4.1,12.6-8.1c1.4-1.5,2.2-3.3,2.2-5.3c0-2.1-1.4-3.6-3.5-3.3
				c-1.1,0.1-2.2,0.6-3.2,1.2c-4.4,2.7-7.7,6.6-10.5,10.9c-1.4,2.1-2.6,5.4-2.6,7.9c0,3.5,1.7,5.5,5.1,6c2.5,0.4,5-0.1,7.3-1.2
				c2.9-1.3,4.8-3.1,7.1-5.3c-0.1,0.7-0.1,1.2-0.1,1.6c0,2.8,2.2,4.7,5,5c6.5,0.7,12.7-7,15.2-11.9c1.6-3,2.7-6.8,2.6-9.8
				C244.1,242,242.5,240.2,240.2,240.1z M217.2,243.7c1-0.5,1.1,0.5,1,0.8c-1.8,3.4-7.2,7.6-11.2,9C210,249.5,213,246,217.2,243.7z
				 M240.5,247.7c-1.2,4.6-7.5,13.5-11.6,14.8c-3.2,1.1-4.6,0.1-4-4c0.4-2.3,1.4-4.1,2.6-6.1c0.6-1.1,1.2-0.3,2.1-1.7
				c2.5-4,7.6-8.6,10.4-7.3C241.2,243.9,240.8,246.7,240.5,247.7z"/>
		</g>
		<path class="st0" d="M382.4,256.1c-2.1,3.6-6.3,6.2-10.3,8.3c-1.4,0.8-2.8,1.5-4.4,1.5c-0.8,0-1.4-0.5-1.6-1.3
			c-0.2-0.8,0.1-1.5,0.9-2c0.4-0.3,0.9-0.5,1.4-0.7c1.3-0.5,2.6-0.9,3.8-1.4c2.6-1.2,4.9-2.9,6.8-5.1c0.5-0.6,0.6-2.3-1-1.8
			c-2.6,0.7-5.2,1.6-7.8,2.3c-2.1,0.6-4.3,1.2-6.5,1.5c-2.6,0.4-4.2-1.7-3.4-4.3c0.7-2.3,2.1-4.3,3.7-6.1c2.3-2.4,4.7-4.6,7.5-6.3
			c0.9-0.6,1.9-1.1,3-1.4c1.9-0.6,3.9,0.6,4.3,2.3c0.1,0.4,0.1,0.9,0,1.3c-0.1,0.4-0.4,1.1-0.8,1.2c-0.3,0.1-1-0.2-1.2-0.5
			c-0.9-1-1.9-0.9-3-0.3c-2.8,1.5-5.2,3.6-7.4,5.9c-1,1-1.8,2.2-2.6,3.3c-0.6,1-0.1,1.8,1,1.6c1.4-0.3,2.9-0.6,4.3-1.1
			c2.9-0.9,5.7-1.8,8.6-2.7c0.7-0.2,1.4-0.2,2.1-0.1C382.6,250.6,384.3,252.9,382.4,256.1z"/>
		<path class="st0" d="M388.3,245.7c-1.4,0.4-2.8,0.8-4.2,1.2c-0.6,0.2-1.3,0.5-1.8,0.3c-0.6-0.2-1.2-0.7-1.4-1.2
			c-0.3-0.7,0.4-1.2,1.1-1.4c1-0.4,6.3-1.9,6.4-2.1c0.3-0.6,0.4-2.9,0.6-4c0.2-1.4,0.4-2.7,0.7-4.1c0.3-1.6,1.1-2.3,2.4-2.2
			c1.2,0,1.8,0.8,1.6,2c-0.4,2.1-0.8,4.9-1.2,7c0,0.1,0,0.3,0,0.5c1.2-0.2,2.3-0.5,3.4-0.7c2-0.4,3.4-0.9,5.4-1.3
			c1-0.2,2.2-0.4,2.8,0.6c0.3,0.5,0,2.2-1.2,2.7c-1.1,0.4-2.3,0.1-3.5,0.3c-2.6,0.4-4.6,1-7.3,1.5c-0.1,3.7-0.3,7.3-0.4,10.8
			c0,1.6,0.2,3.9,0.3,5.5c0.1,1,0.7,1.3,0.9,2.1c0.2,0.9-0.5,2.3-2.2,2.6c-1.4,0.2-2.2-0.6-2.2-2.3c0-2.8,0-6.3,0-9.2
			C388.3,251.6,388.3,248.8,388.3,245.7z"/>
		<path class="st0" d="M351.6,248c3.6-5.8,10.5-7.9,12.5-6.5c0.7,0.5-0.1,2.4-1,2.4c-3.5-0.2-8.6,4.2-9.8,7.9
			c-0.9,2.5-0.3,10.1-0.5,12.8c0,0.4-0.4,1-0.8,1.2c-0.6,0.4-1.9-0.1-2.2-0.8c-0.3-0.7-0.4-1.4-0.4-2.2c0-2.6,0.5-5.2,0.2-7.7
			c-0.4-3.2-1.3-6.4-2.1-9.6c-0.4-1.5,0-2.6,1.4-3.1c1.1-0.4,1.8,0,2.2,0.9C351.3,244.3,351.6,248,351.6,248z"/>
		<path class="st0" d="M276.6,239.1c-0.2,4.3-0.5,7.1-0.7,12c-0.1,4.4-0.1,8.8-0.2,13.1c0,0.3,0.1,0.5,0.1,0.8
			c0.2,1.2-0.4,1.8-1.6,1.8c-1.6,0-2.2-0.7-2.1-2.3c0.3-9.1,0.7-16.2,0.9-25.3c0.1-2.9,0.2-5.3-0.1-8.2c-0.2-2.7,3.9-2.3,4-0.9
			c0,0.4,0,0.8,0,1.2C276.8,233.8,276.8,236.2,276.6,239.1z"/>
		<ellipse transform="matrix(0.151 -0.9885 0.9885 0.151 56.2922 538.7497)" class="st0" cx="341.8" cy="236.6" rx="2.8" ry="2.4"/>
		<ellipse transform="matrix(0.151 -0.9885 0.9885 0.151 77.811 616.9849)" class="st0" cx="398.1" cy="263.2" rx="2.8" ry="2.4"/>
	</g>
</g>
</svg>
