<?xml version="1.0" encoding="utf-8"?>
<!-- Generator: Adobe Illustrator 20.0.0, SVG Export Plug-In . SVG Version: 6.00 Build 0)  -->
<svg version="1.1" id="Layer_1" xmlns="http://www.w3.org/2000/svg" xmlns:xlink="http://www.w3.org/1999/xlink" x="0px" y="0px"
	 viewBox="0 0 255.6 99.3" style="enable-background:new 0 0 255.6 99.3;" xml:space="preserve">
<style type="text/css">
	.st0{fill:#FFFFFF;}
	.st1{fill:#68BD45;}
	.st2{font-family:'Oduda-Bold';}
	.st3{font-size:63.1176px;}
	.st4{fill:#5AAC46;}
	.st5{fill:#A3692C;}
</style>
<path class="st0" d="M-70.9,8.8h-19.5c-3.4,0-6.2-2.8-6.2-6.2v-19.5c0-3.4,2.8-6.2,6.2-6.2h19.5c3.4,0,6.2,2.8,6.2,6.2V2.6
	C-64.8,6-67.5,8.8-70.9,8.8z"/>
<g>
	<text transform="matrix(1 0 0 1 6.0104 80.5213)"><tspan x="0" y="0" class="st1 st2 st3">live</tspan><tspan x="91.3" y="0" class="st4 st2 st3">green</tspan></text>
	<circle class="st4" cx="26.9" cy="42.5" r="4.8"/>
</g>
<g>
	<path class="st5" d="M49.4,20.4c-2-2-5.3-2-7.4,0L23.6,38.8c-2,2-2,5.3,0,7.4c2,2,5.3,2,7.4,0l18.4-18.4
		C51.5,25.7,51.5,22.4,49.4,20.4z"/>
	<path class="st1" d="M34.7,13c4-4,16.8-7.5,25.3-9.4c3.7-0.9,7.1,2.5,6.2,6.2c-2,8.5-5.4,21.3-9.4,25.3c-6.1,6.1-16,6.1-22.1,0
		C28.5,29,28.5,19.1,34.7,13z"/>
	<path class="st4" d="M49.4,20.4c-2-2-5.3-2-7.4,0L31.6,30.8c0.7,1.6,1.8,3,3.1,4.3c1.3,1.3,2.8,2.3,4.3,3.1l10.4-10.4
		C51.5,25.7,51.5,22.4,49.4,20.4z"/>
</g>
</svg>
