<?xml version="1.0" encoding="utf-8"?>
<!-- Generator: Adobe Illustrator 20.0.0, SVG Export Plug-In . SVG Version: 6.00 Build 0)  -->
<svg version="1.1" id="Layer_1" xmlns="http://www.w3.org/2000/svg" xmlns:xlink="http://www.w3.org/1999/xlink" x="0px" y="0px"
	 viewBox="0 0 131.4 58.7" style="enable-background:new 0 0 131.4 58.7;" xml:space="preserve">
<style type="text/css">
	.st0{fill:#1C3444;}
</style>
<title>SHFullMock</title>
<path class="st0" d="M64.2,31.8H67c0,0-0.4,4.2,3.3,4.2c3.7,0,5.8-2.8,9.3-2.8c4,0,6.7,2.9,6.7,8.2c0,7.8-10.8,9-10.8,9
	s7.7-2.2,7.7-8.4c0-5.2-3-5.2-3.6-5.2c-3,0-4.4,2.4-8.4,2.4c-3.3,0-5.1-1.8-5.6-3.1l0,0c-0.5,1.3-2.3,3.1-5.6,3.1
	c-4,0-5.3-2.4-8.4-2.4c-0.7,0-3.6,0-3.6,5.2c0,6.2,7.7,8.4,7.7,8.4s-10.8-1.2-10.8-9.1c0-5.2,2.7-8.2,6.7-8.2c3.5,0,5.6,2.8,9.3,2.8
	C64.6,36,64.2,31.8,64.2,31.8h2.9"/>
<path class="st0" d="M65.8,57.1c22.5,0,29.3-13,29.3-13s25.3-5.6,25.3-17.7c0-6.7-14.2-7.1-14.2-7.1c0,14.7-12,16.6-17.2,19.3
	c-2.3,1.3-2.7,2.3-2.7,2.3s0,5.3-5.9,7.9s-14.6,2.5-14.6,2.5S56.9,51.5,51,49s-5.9-7.9-5.9-7.9s-0.3-1.1-2.7-2.3
	c-5.2-2.7-17.2-4.7-17.2-19.3c0,0-14.2,0.4-14.2,7.1c0,12.1,25.4,17.7,25.4,17.7S43.4,57.1,65.8,57.1z"/>
<path class="st0" d="M9.2,22.7c0.1,0,0.2,0.1,0.2,0.2s0,0.1-0.1,0.2c-1.3,1-2,2.6-1.9,4.2c0,5.3,5.2,8.4,7.8,9.5
	c0.1,0,0.1,0.2,0.1,0.2c0,0.1-0.1,0.1-0.2,0.1c-3.5-0.6-11.7-2.7-11.7-8.6C3.4,24.4,7.3,23.1,9.2,22.7z"/>
<path class="st0" d="M68.8,1.6h-6.4c0,0,1.1,8.1-6.4,8.1c-8,0-10.6-5.5-18.1-5.5c-8.1,0-13,5.7-13,16.1c-0.1,6.8,4,13,10.3,15.6
	c-2.6-4.7-4-9.9-4.1-15.2c0-7.1,3.4-9.5,6.8-9.5c5.8,0,9.1,4.7,17.1,4.7c5.8,0,9.7-4,10.4-6.2c0-0.1,0.1-0.1,0.2-0.1
	c0,0,0.1,0,0.1,0.1c0.7,2.2,4.7,6.2,10.4,6.2c8,0,11.4-4.7,17.1-4.7c3.4,0,6.8,2.4,6.8,9.5c-0.1,5.3-1.5,10.6-4.1,15.2
	c6.4-2.6,10.5-8.8,10.4-15.7c0-10.4-4.9-16.1-13-16.1c-7.5,0-10.1,5.5-18.1,5.5C67.7,9.6,68.8,1.6,68.8,1.6h-6.4"/>
<path class="st0" d="M84.6,30.3c-0.3,0-0.5-0.3-0.5-0.6c0.1-2.2,0.8-10.3,4.5-10.3s3.8,7.4,3.8,9.1c0,0.2-0.1,0.4-0.3,0.5
	C89.8,30.2,87.2,30.6,84.6,30.3z"/>
<path class="st0" d="M75.6,45.8C75.5,45.8,75.5,45.8,75.6,45.8l-0.1-0.2c0.4-1,1.9-4.9,3.9-3.8C81.3,43,76.7,45.3,75.6,45.8z"/>
<path class="st0" d="M122.1,22.7c-0.1,0-0.2,0.1-0.2,0.2s0,0.1,0.1,0.2c1.3,1,2,2.6,1.9,4.2c0,5.3-5.2,8.4-7.8,9.5
	c-0.1,0-0.1,0.2-0.1,0.2c0,0.1,0.1,0.1,0.2,0.1c3.5-0.6,11.7-2.7,11.7-8.6C127.9,24.4,124,23.1,122.1,22.7z"/>
<path class="st0" d="M55.7,45.8C55.8,45.8,55.8,45.8,55.7,45.8l0.1-0.2c-0.4-1-1.9-4.9-3.9-3.8C50,43,54.5,45.3,55.7,45.8z"/>
<path class="st0" d="M46.7,30.3c0.3,0,0.5-0.3,0.5-0.6c-0.1-2.2-0.8-10.3-4.5-10.3s-3.9,7.4-3.8,9.1c0,0.2,0.1,0.4,0.3,0.5
	C41.5,30.2,44.1,30.6,46.7,30.3z"/>
</svg>
