<?xml version="1.0" encoding="utf-8"?>
<!-- Generator: Adobe Illustrator 20.0.0, SVG Export Plug-In . SVG Version: 6.00 Build 0)  -->
<svg version="1.1" id="Layer_1" xmlns="http://www.w3.org/2000/svg" xmlns:xlink="http://www.w3.org/1999/xlink" x="0px" y="0px"
	 viewBox="0 0 150 100" style="enable-background:new 0 0 150 100;" xml:space="preserve">
<style type="text/css">
	.st0{fill:#FFFFFF;}
</style>
<g>
	<title>SHFullMock</title>
	<path class="st0" d="M73.7,53.9h3c0,0-0.4,4.5,3.5,4.5s6.1-3,9.8-3c4.3,0,7.1,3.1,7.1,8.6c0,8.3-11.4,9.5-11.4,9.5s8.1-2.3,8.1-8.9
		c0-5.5-3.1-5.4-3.8-5.4c-3.2,0-4.6,2.5-8.8,2.5c-3.5,0-5.4-1.9-5.9-3.2l0,0c-0.5,1.4-2.4,3.2-5.9,3.2c-4.2,0-5.6-2.5-8.8-2.5
		c-0.7,0-3.8,0-3.8,5.4c0,6.6,8.1,8.9,8.1,8.9s-11.5-1.3-11.5-9.6c0-5.5,2.8-8.6,7.1-8.6c3.7,0,5.9,3,9.8,3
		C74.1,58.3,73.7,53.8,73.7,53.9l3,0"/>
	<path class="st0" d="M75.2,80.6c23.8,0,31.1-13.8,31.1-13.8s26.9-5.9,26.9-18.7c0-7.1-15.1-7.5-15.1-7.5
		c0,15.5-12.8,17.5-18.2,20.4c-2.5,1.3-2.8,2.5-2.8,2.5s0,5.6-6.2,8.4c-6.2,2.7-15.6,2.5-15.6,2.5s-9.4,0.2-15.7-2.5
		s-6.2-8.4-6.2-8.4s-0.3-1.2-2.8-2.5c-5.5-2.9-18.2-4.9-18.2-20.4c0,0-15.1,0.4-15.1,7.5c0,12.8,26.9,18.7,26.9,18.7
		S51.3,80.6,75.2,80.6z"/>
	<path class="st0" d="M15.5,44.3c0.1,0,0.2,0.1,0.2,0.2c0,0.1,0,0.1-0.1,0.2c-1.4,1.1-2.1,2.8-2,4.5c0,5.6,5.5,8.8,8.2,10.1
		c0.1,0,0.2,0.2,0.1,0.3c0,0.1-0.1,0.1-0.2,0.1c-3.7-0.6-12.3-2.8-12.3-9.1C9.5,46.1,13.6,44.7,15.5,44.3z"/>
	<path class="st0" d="M78.6,21.9h-6.7c0,0,1.2,8.5-6.7,8.5c-8.5,0-11.2-5.8-19.1-5.8c-8.6,0-13.7,6.1-13.7,17
		c-0.2,7.2,4.2,13.8,10.9,16.6c-2.8-4.9-4.3-10.4-4.4-16.1c0-7.5,3.6-10,7.2-10c6.1,0,9.6,5,18.1,5c6.1,0,10.2-4.2,11-6.5
		c0-0.1,0.1-0.1,0.2-0.1c0,0,0.1,0.1,0.1,0.1c0.8,2.3,4.9,6.5,11,6.5c8.5,0,12-5,18.1-5c3.6,0,7.2,2.5,7.2,10
		c-0.1,5.6-1.6,11.2-4.4,16.1c6.7-2.7,11.1-9.3,10.9-16.5c0-11-5.2-17-13.7-17c-8,0-10.7,5.8-19.1,5.8
		C77.4,30.5,78.6,21.9,78.6,21.9h-6.7"/>
	<path class="st0" d="M95.2,52.3c-0.3,0-0.6-0.3-0.6-0.7c0.1-2.3,0.8-10.8,4.8-10.8s4,7.8,4,9.6c0,0.2-0.1,0.4-0.3,0.5
		C100.7,52.2,97.9,52.6,95.2,52.3z"/>
	<path class="st0" d="M85.7,68.7c-0.1,0-0.1,0-0.2-0.1c0,0,0-0.1,0-0.1c0.4-1.1,2-5.2,4.1-4C91.7,65.7,86.9,68.1,85.7,68.7z"/>
	<path class="st0" d="M134.8,44.3c-0.1,0-0.2,0.1-0.2,0.2c0,0.1,0,0.1,0.1,0.2c1.4,1.1,2.1,2.8,2,4.5c0,5.6-5.5,8.8-8.2,10.1
		c-0.1,0-0.2,0.2-0.1,0.3c0,0.1,0.1,0.1,0.2,0.1c3.7-0.6,12.3-2.8,12.3-9.1C140.9,46.1,136.8,44.7,134.8,44.3z"/>
	<path class="st0" d="M64.7,68.7c0.1,0,0.1,0,0.2-0.1c0,0,0-0.1,0-0.1c-0.4-1.1-2-5.2-4.1-4C58.6,65.7,63.5,68.1,64.7,68.7z"/>
	<path class="st0" d="M55.1,52.3c0.3,0,0.6-0.3,0.6-0.7c-0.1-2.3-0.8-10.8-4.8-10.8s-4.1,7.8-4.1,9.6c0,0.2,0.1,0.4,0.3,0.5
		C49.7,52.2,52.4,52.6,55.1,52.3z"/>
</g>
</svg>
